<svg xmlns="http://www.w3.org/2000/svg" xmlns:xlink="http://www.w3.org/1999/xlink" width="194pt" height="194pt" viewBox="0 0 194 194" version="1.1">
  <g id="surface1">
    <path style=" stroke:none;fill-rule:evenodd;fill:rgb(100%,100%,100%);fill-opacity:1;" d="M 0.257813 0.675781 L 193.015625 0.675781 L 193.015625 193.433594 L 0.257813 193.433594 L 0.257813 0.675781 "/>
    <path style=" stroke:none;fill-rule:evenodd;fill:rgb(0%,51.799011%,34.098816%);fill-opacity:1;" d="M 3.332031 121.921875 C 2.675781 115.90625 3.382813 109.640625 5.355469 103.527344 C 4.597656 107.417969 4.394531 111.359375 4.800781 115.148438 C 7.578125 140.421875 38.105469 150.125 67.824219 141.683594 C 99.15625 132.789063 124.378906 103.726563 121.597656 78.507813 C 120.183594 65.417969 111.945313 55.816406 99.816406 51.015625 C 115.683594 55.410156 126.804688 66.632813 128.523438 82.601563 C 131.503906 109.945313 107.042969 143.554688 72.472656 154.421875 C 37.902344 165.285156 6.316406 149.265625 3.332031 121.921875 "/>
    <path style=" stroke:none;fill-rule:evenodd;fill:rgb(13.699341%,12.199402%,12.5%);fill-opacity:1;" d="M 14.453125 116.363281 L 35.273438 53.59375 L 6.820313 53.59375 L 12.835938 36.257813 L 98.804688 36.257813 L 93.648438 49.953125 C 91.578125 49.699219 89.351563 49.550781 87.027344 49.550781 C 65.546875 49.550781 47.101563 62.992188 45.382813 79.773438 C 44.777344 85.683594 46.542969 90.484375 49.929688 93.972656 L 43.109375 116.363281 L 14.453125 116.363281 "/>
    <path style=" stroke:none;fill-rule:evenodd;fill:rgb(13.699341%,12.199402%,12.5%);fill-opacity:1;" d="M 39.015625 132.382813 C 41.441406 132.535156 43.664063 132.738281 49.222656 132.6875 C 62.214844 132.433594 76.109375 128.949219 86.269531 122.378906 C 99.257813 114.039063 110.328125 99.382813 112.148438 81.691406 C 113.765625 65.671875 104.96875 54.046875 84.753906 54.046875 C 64.285156 54.046875 46.695313 67.589844 45.078125 84.523438 C 43.765625 97.863281 53.621094 105.496094 67.214844 105.496094 C 72.472656 105.496094 78.589844 104.234375 82.480469 101.300781 L 82.679688 101.453125 C 79.902344 105.648438 75.050781 109.742188 68.328125 112.773438 C 63.476563 114.847656 57.511719 116.109375 51.546875 116.3125 C 47.65625 116.3125 45.636719 116.414063 43.410156 116.160156 Z M 81.367188 69.257813 C 87.382813 69.257813 90.109375 73.351563 89.605469 78.40625 C 89.453125 80.074219 89.050781 82.398438 88.394531 83.765625 C 87.785156 85.433594 86.925781 86.59375 86.117188 87.453125 C 84.5 89.019531 81.015625 90.890625 76.566406 90.890625 C 71.714844 90.890625 68.074219 87.605469 68.632813 82.046875 C 69.1875 75.878906 74.949219 69.257813 81.214844 69.257813 L 81.367188 69.257813 "/>
    <path style=" stroke:none;fill-rule:evenodd;fill:rgb(13.699341%,12.199402%,12.5%);fill-opacity:1;" d="M 132.816406 106.507813 L 127.308594 118.941406 L 130.492188 118.941406 L 136.003906 106.507813 L 132.816406 106.507813 "/>
    <path style=" stroke:none;fill-rule:evenodd;fill:rgb(13.699341%,12.199402%,12.5%);fill-opacity:1;" d="M 136.355469 118.941406 L 138.429688 114.242188 C 139.285156 112.320313 139.996094 110.703125 140.398438 109.488281 L 140.5 109.488281 C 140.601563 111.007813 140.753906 112.21875 141.054688 113.886719 L 142.167969 118.941406 L 145.605469 118.941406 L 151.113281 106.507813 L 148.082031 106.507813 L 145.90625 111.460938 C 145.148438 113.230469 144.695313 114.289063 144.390625 115.554688 L 144.339844 115.554688 C 144.238281 114.089844 144.140625 112.773438 143.835938 111.207031 L 142.773438 106.507813 L 138.832031 106.507813 L 133.375 118.941406 L 136.355469 118.941406 "/>
    <path style=" stroke:none;fill-rule:evenodd;fill:rgb(13.699341%,12.199402%,12.5%);fill-opacity:1;" d="M 148.234375 118.941406 L 151.316406 118.941406 L 153.285156 114.492188 C 153.640625 114.542969 154.09375 114.59375 154.703125 114.59375 C 156.570313 114.59375 158.390625 114.191406 159.804688 113.429688 C 161.171875 112.621094 162.183594 111.511719 162.535156 109.996094 C 162.839844 108.628906 162.382813 107.769531 161.421875 107.164063 C 160.464844 106.609375 159.046875 106.40625 157.683594 106.40625 C 156.117188 106.40625 154.601563 106.558594 153.640625 106.761719 Z M 155.863281 108.730469 C 156.167969 108.679688 156.621094 108.628906 157.277344 108.628906 C 158.492188 108.628906 159.605469 108.933594 159.300781 110.246094 C 158.996094 111.5625 157.429688 112.371094 155.660156 112.371094 C 155.003906 112.371094 154.652344 112.320313 154.296875 112.21875 L 155.863281 108.730469 "/>
    <path style=" stroke:none;fill-rule:evenodd;fill:rgb(13.699341%,12.199402%,12.5%);fill-opacity:1;" d="M 165.316406 106.507813 L 162.382813 113.179688 C 162.132813 113.734375 161.929688 114.339844 161.777344 114.847656 C 161.121094 117.777344 162.839844 119.195313 165.972656 119.144531 C 170.117188 119.144531 172.59375 117.324219 174.414063 113.332031 L 177.445313 106.507813 L 174.261719 106.507813 L 171.230469 113.332031 C 170.167969 115.808594 168.699219 116.867188 166.882813 116.867188 C 165.316406 116.867188 164.710938 115.957031 164.960938 114.847656 C 165.0625 114.242188 165.265625 113.734375 165.46875 113.332031 L 168.449219 106.507813 L 165.316406 106.507813 "/>
    <path style=" stroke:none;fill-rule:evenodd;fill:rgb(13.699341%,12.199402%,12.5%);fill-opacity:1;" d="M 177.34375 118.941406 L 180.476563 118.941406 L 184.925781 108.882813 L 189.121094 108.882813 L 190.179688 106.507813 L 178.710938 106.507813 L 177.648438 108.882813 L 181.789063 108.882813 L 177.34375 118.941406 "/>
    <path style=" stroke:none;fill-rule:evenodd;fill:rgb(13.699341%,12.199402%,12.5%);fill-opacity:1;" d="M 134.636719 100.492188 L 137.769531 100.492188 L 142.21875 90.484375 L 146.414063 90.484375 L 147.472656 88.109375 L 136.003906 88.109375 L 134.941406 90.484375 L 139.085938 90.484375 L 134.636719 100.492188 "/>
    <path style=" stroke:none;fill-rule:evenodd;fill:rgb(13.699341%,12.199402%,12.5%);fill-opacity:1;" d="M 155.714844 92.964844 L 150.050781 92.964844 L 151.164063 90.4375 L 157.179688 90.4375 L 158.238281 88.109375 L 149.039063 88.109375 L 143.53125 100.492188 L 153.035156 100.492188 L 154.046875 98.167969 L 147.726563 98.167969 L 148.992188 95.339844 L 154.652344 95.339844 L 155.714844 92.964844 "/>
    <path style=" stroke:none;fill-rule:evenodd;fill:rgb(13.699341%,12.199402%,12.5%);fill-opacity:1;" d="M 166.476563 100.492188 L 164.757813 94.175781 L 171.734375 88.109375 L 167.792969 88.109375 L 165.46875 90.484375 C 164.910156 91.09375 164.355469 91.699219 163.546875 92.558594 L 163.496094 92.558594 C 163.394531 91.800781 163.292969 91.246094 163.140625 90.484375 L 162.6875 88.109375 L 159.300781 88.109375 L 160.867188 94.175781 L 153.691406 100.492188 L 157.632813 100.492188 L 159.957031 98.167969 C 160.816406 97.257813 161.371094 96.601563 162.03125 95.894531 L 162.082031 95.894531 C 162.230469 96.652344 162.332031 97.308594 162.484375 98.066406 L 163.089844 100.492188 L 166.476563 100.492188 "/>
    <path style=" stroke:none;fill-rule:evenodd;fill:rgb(13.699341%,12.199402%,12.5%);fill-opacity:1;" d="M 170.621094 100.492188 L 173.804688 100.492188 L 178.203125 90.484375 L 182.449219 90.484375 L 183.511719 88.109375 L 171.988281 88.109375 L 170.925781 90.484375 L 175.070313 90.484375 L 170.621094 100.492188 "/>
  </g>
</svg>
